<svg xmlns="http://www.w3.org/2000/svg" viewBox="0 0 1592.19 717.79"><defs><style>.cls-1{fill:#5c7387;}.cls-2{fill:#486fb2;}.cls-3{fill:#f1d432;}.cls-4{fill:#cd3a44;}.cls-5{fill:#54934e;}.cls-6{fill:#606060;}</style></defs><g id="Capa_2" data-name="Capa 2"><g id="Layer_1" data-name="Layer 1"><path class="cls-1" d="M153.69,353,52.61,198.94c-3.14-4.88-7-11.85-10.11-18.13a159.7,159.7,0,0,1,1,18.13V353H2.06V109H42.5l98.64,151.62c3.49,5.23,7,12.21,10.11,18.48a180.9,180.9,0,0,1-1-18.48V109h41.48V353Z"/><path class="cls-1" d="M238.73,264.12c0-58.21,31.72-93.42,81.57-93.42,50.19,0,81.91,35.21,81.91,93.42,0,58.56-31.72,93.07-81.91,93.07C270.45,357.19,238.73,322.68,238.73,264.12Zm122.7,0c0-33.81-15.69-54.73-41.13-54.73-24.75,0-40.79,20.92-40.79,54.73s16,54,40.79,54C345.74,318.15,361.43,297.93,361.43,264.12Z"/><path class="cls-1" d="M445.77,174.89h40.78v18.47c7-14.64,18.83-22.66,36.61-22.66a49.61,49.61,0,0,1,33.11,12.2l-5.93,37.3C543,215,533.61,210.79,520,210.79c-15.69,0-33.47,8.71-33.47,42.53V353H445.77Z"/><path class="cls-1" d="M795.38,250.87c0-27.88-9.41-41.48-30.32-41.48-20.57,0-33.47,13.6-33.47,42.18V353H690.81V250.87c0-27.88-9.41-41.48-30.32-41.48-20.22,0-33.47,13.6-33.47,42.18V353H586.24V174.89H627v16.38c10.11-13.6,25.1-20.57,43.57-20.57,21.27,0,37.3,8,46.71,25.1C729.15,178.37,748,170.7,771,170.7c36.95,0,65.19,18.48,65.19,68.67V353H795.38Z"/><path class="cls-1" d="M988.14,338.72c-8.72,9.06-23.71,18.47-47.41,18.47-36.6,0-64.49-20.22-64.49-59.26C876.24,256.8,910.75,239,946,239c16.73,0,31,3.14,42.18,9.42V239c0-23.35-11.51-32.41-34.86-32.41-21.61,0-38,6.27-53,16.73l-12.54-33.12c16-10.8,39.73-19.52,69.71-19.52,31.37,0,70.41,7.67,70.41,67.63V353H988.14Zm0-34.51v-23c-9.42-4.53-22.31-7.32-35.56-7.32-20.22,0-36.6,7-36.6,24.05,0,13.94,11.16,23.36,32.42,23.36A54.22,54.22,0,0,0,988.14,304.21Z"/><path class="cls-1" d="M1078.41,120.51l40.78-19.18V353h-40.78Z"/><path class="cls-1" d="M1169.73,126.09A24.17,24.17,0,0,1,1194.12,102a23.89,23.89,0,0,1,24.06,24.06c0,13.59-10.46,24.4-24.06,24.4A24.25,24.25,0,0,1,1169.73,126.09Zm3.83,48.8h40.78V353h-40.78Z"/><path class="cls-1" d="M1260,320.24l93.42-109.1H1267V174.89h137v31.37l-93.07,110.49h92.72V353H1260Z"/><path class="cls-1" d="M1552.45,338.72c-8.72,9.06-23.7,18.47-47.41,18.47-36.6,0-64.48-20.22-64.48-59.26,0-41.13,34.5-58.91,69.71-58.91,16.73,0,31,3.14,42.18,9.42V239c0-23.35-11.51-32.41-34.86-32.41-21.61,0-38,6.27-53,16.73l-12.55-33.12c16-10.8,39.74-19.52,69.71-19.52,31.38,0,70.42,7.67,70.42,67.63V353h-39.74Zm0-34.51v-23c-9.41-4.53-22.31-7.32-35.56-7.32-20.21,0-36.6,7-36.6,24.05,0,13.94,11.16,23.36,32.42,23.36A54.2,54.2,0,0,0,1552.45,304.21Z"/><path class="cls-2" d="M258.51,24.16a24.16,24.16,0,1,1,24.16,24.15,24.16,24.16,0,0,1-24.16-24.15"/><path class="cls-3" d="M386.73,24.16a24.16,24.16,0,1,1,24.16,24.15,24.15,24.15,0,0,1-24.16-24.15"/><path class="cls-4" d="M178.61,24.16A24.16,24.16,0,1,1,154.46,0a24.15,24.15,0,0,1,24.15,24.16"/><path class="cls-5" d="M50.4,24.16A24.16,24.16,0,1,1,26.24,0,24.16,24.16,0,0,1,50.4,24.16"/><path class="cls-6" d="M0,511.67l14.36-4.93c4.9,10.19,15.23,17.1,28.72,17.1,14.71,0,24.17-6.74,24.17-19.4,0-13.32-13.31-19.41-27.67-24.34-17.16-5.92-35.9-13.32-35.9-33.38,0-15.46,13.83-28.45,37.65-28.45,19.44,0,32.22,8.71,35.9,20.55l-14,4.44c-3-6.41-10.86-11.67-22.94-11.67-13,0-20.84,5.75-20.84,15.13,0,10.69,12.61,15.45,26.44,20.22C63,473,83,481.42,83,504.11c0,21.21-17.16,33.22-40.28,33.22C21.36,537.33,5.43,526.47,0,511.67Z"/><path class="cls-6" d="M97.88,493.42c0-27.63,15.59-44.07,39.58-44.07S177,465.46,177,493.25c0,27.63-15.59,44.08-39.58,44.08S97.88,521.21,97.88,493.42Zm63.75-.17c0-19.07-8.94-30.75-24.17-30.75s-24.17,11.35-24.17,30.92c0,19.07,8.93,30.59,24.17,30.59C152.52,524,161.63,512.49,161.63,493.25Z"/><path class="cls-6" d="M195.59,423.37l15.23-6.75V535.35H195.59Z"/><path class="cls-6" d="M288.75,527.3c-6,7.23-13.14,10-22.59,10-21,0-32.58-10.53-32.58-37.5V451.32h15.24V502c0,15.95,8.23,22,19.26,22,11.73,0,20.67-5.27,20.67-21.71v-51H304v84H288.75Z"/><path class="cls-6" d="M321.66,493.42c0-27.63,14.36-44.07,37.82-44.07,14.89,0,26.27,6.41,31.35,19.57l-14.36,4.93c-2.63-6.41-8.06-11.18-16.81-11.18-15.24,0-22.42,11.84-22.42,30.75,0,19.07,7.53,30.42,21.89,30.42,8.93,0,15.59-4.6,18.22-12.5l14.18,4.44c-4.38,13.82-16.29,21.55-32.75,21.55C336,537.33,321.66,521.21,321.66,493.42Z"/><path class="cls-6" d="M406.58,427.15a9.55,9.55,0,0,1,19.09,0c0,4.93-4.2,8.88-9.63,8.88C410.78,436,406.58,432.08,406.58,427.15Zm1.93,24.17h15.23v84H408.51Z"/><path class="cls-6" d="M441.42,493.42c0-27.63,15.59-44.07,39.58-44.07s39.58,16.11,39.58,43.9c0,27.63-15.59,44.08-39.58,44.08S441.42,521.21,441.42,493.42Zm63.75-.17c0-19.07-8.93-30.75-24.17-30.75s-24.16,11.35-24.16,30.92c0,19.07,8.93,30.59,24.16,30.59C496.06,524,505.17,512.49,505.17,493.25Z"/><path class="cls-6" d="M593.42,484.54c0-16-8.23-22-19.26-22-11.74,0-20.67,5.43-20.67,21.71v51.14H538.26v-84h15.23v8.55c5.61-7.23,13.49-10.52,23.12-10.52,20.31,0,32,10.52,32,37.66v48.34H593.42Z"/><path class="cls-6" d="M625.45,493.25c0-27.79,15.94-43.9,39.76-43.9,20.14,0,36.95,12.33,36.95,40,0,2.63-.18,6.25-.53,9.54H641c1.23,15.45,11,25.49,24.52,25.49a27.69,27.69,0,0,0,19.26-7.57l9.28,9.7c-6.65,6.25-16.81,10.86-28.89,10.86C640.69,537.33,625.45,518.91,625.45,493.25Zm61.3-6.57C686.57,467.6,674.66,462,665.21,462c-13,0-23.47,7.4-24.34,24.67Z"/><path class="cls-6" d="M712.83,523.18l10.86-8.71c4.55,4.6,12.25,10,21.89,10,9.45,0,16.63-3.29,16.63-10.69,0-8.39-10-12.17-20.49-15.95-16.46-5.75-27.67-12.5-27.67-26.31s13-22.2,30.13-22.2c13.65,0,23.64,5.42,30.12,12.66l-10.51,8.22A27.39,27.39,0,0,0,744,462.17c-9.11,0-14.89,3.46-14.89,9.38,0,7.07,8.94,10.19,18.92,14,16.28,5.42,29.07,12,29.07,28,0,15.13-12.44,23.85-31.87,23.85C732.09,537.33,719.83,531.57,712.83,523.18Z"/><path class="cls-6" d="M824.54,493.25c0-27.62,14.71-43.9,37-43.9,10.51,0,17.51,3.62,22.59,7.89V423.37l15.24-6.75V535.35H884.08v-6.57c-5.08,4.93-11.91,8.55-22.59,8.55C838.72,537.33,824.54,520.39,824.54,493.25Zm59.54,19.41V473.19a24.49,24.49,0,0,0-20.49-10.69c-15.06,0-23.64,11-23.64,30.75,0,17.44,8.93,30.76,23.64,30.76A23.83,23.83,0,0,0,884.08,512.66Z"/><path class="cls-6" d="M916.82,493.25c0-27.79,15.93-43.9,39.75-43.9,20.14,0,36.95,12.33,36.95,40a94.05,94.05,0,0,1-.53,9.54H932.4c1.23,15.45,11,25.49,24.52,25.49a27.69,27.69,0,0,0,19.26-7.57l9.29,9.7a42.23,42.23,0,0,1-28.9,10.86C932.05,537.33,916.82,518.91,916.82,493.25Zm61.29-6.57C977.93,467.6,966,462,956.57,462c-13,0-23.47,7.4-24.34,24.67Z"/><path class="cls-6" d="M1047.79,420.24h46.93c29.77,0,39.58,17.43,39.58,34.53,0,15.79-10.86,34.37-39.58,34.37H1063v46.21h-15.23Zm71.27,34.53c0-9-4.9-21.21-23.29-21.21H1063v42.26h32.75C1113.11,475.82,1119.06,464.64,1119.06,454.77Z"/><path class="cls-6" d="M1197.16,527.62a38.35,38.35,0,0,1-25.4,9.71c-18.21,0-31.17-9.54-31.17-28.29,0-19.4,16.11-27.79,33.45-27.79a48.16,48.16,0,0,1,23.12,5.43v-5.92c0-14.8-7.88-18.91-19.44-18.91-10,0-19.44,3.94-26.1,8.38l-4.37-12a63.61,63.61,0,0,1,32.4-8.88c14,0,31.87,4.44,31.87,30.26v55.74h-14.36Zm0-14V499.17a45.51,45.51,0,0,0-21-5.58c-11.56,0-21.19,4.76-21.19,15.45,0,9.38,6.83,15.62,19.09,15.62C1184,524.66,1192.08,519.24,1197.16,513.65Z"/><path class="cls-6" d="M1252,558.21c27.68-1.48,34.33-9.86,34.33-20.88v-10.2c-5.08,6.58-12.26,10.2-23.12,10.2-19.78,0-36.6-14.8-36.6-44.08,0-27.62,15.24-43.9,37.13-43.9,12.08,0,19.09,5.26,22.59,8.88v-6.91h15.24V531.9c0,27.3-17.34,36.18-42.21,37.49Zm34.33-46V473.69c-4.38-6.91-13.13-11.19-20-11.19-15.94,0-24.35,11-24.35,30.75,0,19.24,10,30.76,24.35,30.76C1273.67,524,1281.73,519.57,1286.28,512.17Z"/><path class="cls-6" d="M1319,493.42c0-27.63,15.59-44.07,39.58-44.07s39.58,16.11,39.58,43.9c0,27.63-15.59,44.08-39.58,44.08S1319,521.21,1319,493.42Zm63.75-.17c0-19.07-8.93-30.75-24.17-30.75s-24.17,11.35-24.17,30.92c0,19.07,8.94,30.59,24.17,30.59C1373.65,524,1382.76,512.49,1382.76,493.25Z"/><path class="cls-6" d="M58.67,676.52c-6,7.23-13.14,10-22.6,10-21,0-32.57-10.53-32.57-37.5V600.54H18.74v50.65c0,15.95,8.23,22,19.26,22,11.73,0,20.67-5.26,20.67-21.71v-51H73.9v84H58.67Z"/><path class="cls-6" d="M152,633.76c0-16-8.23-22-19.26-22-11.73,0-20.66,5.42-20.66,21.7v51.14H96.83v-84h15.24v8.55c5.6-7.23,13.48-10.52,23.11-10.52,20.31,0,32,10.52,32,37.66v48.34H152Z"/><path class="cls-6" d="M240.59,676.84a38.32,38.32,0,0,1-25.39,9.71C197,686.55,184,677,184,658.26c0-19.4,16.11-27.79,33.45-27.79a48.1,48.1,0,0,1,23.11,5.43V630c0-14.8-7.88-18.91-19.44-18.91-10,0-19.44,3.95-26.09,8.39l-4.38-12a63.61,63.61,0,0,1,32.4-8.88c14,0,31.87,4.44,31.87,30.26v55.74H240.59Zm0-14V648.4a45.38,45.38,0,0,0-21-5.59c-11.56,0-21.19,4.76-21.19,15.45,0,9.38,6.83,15.62,19.09,15.62C227.46,673.88,235.51,668.46,240.59,662.87Z"/><path class="cls-6" d="M305,642.48c0-27.79,15.93-43.91,39.75-43.91,20.14,0,37,12.33,37,40a94.05,94.05,0,0,1-.53,9.54H320.6c1.23,15.46,11,25.49,24.52,25.49A27.64,27.64,0,0,0,364.38,666l9.29,9.7a42.23,42.23,0,0,1-28.9,10.86C320.25,686.55,305,668.13,305,642.48Zm61.29-6.58c-.18-19.08-12.08-24.67-21.54-24.67-13,0-23.47,7.4-24.34,24.67Z"/><path class="cls-6" d="M503.24,633.6c0-11.52-4.2-21.87-18-21.87-11.55,0-19.26,9-19.26,22.36v50.48H450.71v-51c0-11.52-4-21.87-17.87-21.87-11.9,0-19.26,8.38-19.26,21.7v51.14H398.34v-84h15.24v7.9c5.43-6.75,14-9.87,23.47-9.87,9.63,0,18.91,4.11,24,12.33,5.25-7.56,14.36-12.33,25.92-12.33,17.86,0,31.52,10.52,31.52,30.91v55.09H503.24Z"/><path class="cls-6" d="M555.59,676.68v34.37l-15.24,6.74V600.54h15.24v7.07c5.25-4.93,11.73-9,22.94-9,22.76,0,37,16.94,37,43.91,0,27.95-15.24,44.07-37,44.07C567,686.55,560.31,681.94,555.59,676.68Zm44.3-34.2c0-18.26-8.58-30.75-23.29-30.75-9.11,0-16.64,4.1-21,11.34v38.81c5.07,6.25,11.9,11.35,21,11.35C591.49,673.23,599.89,662.38,599.89,642.48Z"/><path class="cls-6" d="M633,600.54h15.23v11c4-8.39,11.21-13,21.19-13a22.71,22.71,0,0,1,13.84,4.28L681,616.33a22.2,22.2,0,0,0-12.78-3.62c-8.58,0-20,5.43-20,24.5v47.36H633Z"/><path class="cls-6" d="M689.71,642.48c0-27.79,15.93-43.91,39.75-43.91,20.14,0,36.95,12.33,36.95,40,0,2.63-.17,6.25-.52,9.54h-60.6c1.23,15.46,11,25.49,24.52,25.49A27.68,27.68,0,0,0,749.08,666l9.28,9.7a42.21,42.21,0,0,1-28.9,10.86C704.94,686.55,689.71,668.13,689.71,642.48ZM751,635.9c-.17-19.08-12.08-24.67-21.54-24.67-13,0-23.46,7.4-24.34,24.67Z"/><path class="cls-6" d="M777.08,672.4l10.86-8.71c4.55,4.61,12.26,10,21.89,10,9.46,0,16.64-3.29,16.64-10.69,0-8.38-10-12.17-20.49-15.95-16.46-5.75-27.67-12.5-27.67-26.31s13-22.2,30.12-22.2c13.66,0,23.64,5.43,30.12,12.66L828,619.46a27.33,27.33,0,0,0-19.79-8.06c-9.1,0-14.88,3.45-14.88,9.37,0,7.07,8.93,10.19,18.91,14,16.29,5.42,29.07,12,29.07,28,0,15.13-12.43,23.85-31.87,23.85C796.35,686.55,784.09,680.79,777.08,672.4Z"/><path class="cls-6" d="M910.34,676.84A38.32,38.32,0,0,1,885,686.55c-18.21,0-31.17-9.54-31.17-28.29,0-19.4,16.11-27.79,33.44-27.79a48.11,48.11,0,0,1,23.12,5.43V630c0-14.8-7.88-18.91-19.44-18.91-10,0-19.44,3.95-26.09,8.39l-4.38-12a63.61,63.61,0,0,1,32.4-8.88c14,0,31.87,4.44,31.87,30.26v55.74H910.34Zm0-14V648.4a45.38,45.38,0,0,0-21-5.59c-11.56,0-21.19,4.76-21.19,15.45,0,9.38,6.83,15.62,19.08,15.62C897.21,673.88,905.26,668.46,910.34,662.87Z"/><path class="cls-6" d="M1026.08,569.46c29.07,0,38.17,15.13,38.17,30.43,0,10.52-6.65,19.4-18,24,14.19,4.11,22.42,14.47,22.42,27.63,0,15.62-9.81,33.05-39.75,33.05H982.64V569.46Zm23.11,30.59c0-8.39-3.85-17.6-22.24-17.6H997.88V618.3h25.22C1040.43,618.3,1049.19,611.07,1049.19,600.05Zm4.38,52.46c0-11-5.6-21.22-28.55-21.22H997.88v40.13h32.75C1048.67,671.42,1053.57,661.72,1053.57,652.51Z"/><path class="cls-6" d="M1083.5,642.64c0-27.62,14.36-44.07,37.83-44.07,14.88,0,26.27,6.41,31.34,19.57l-14.35,4.93c-2.63-6.41-8.06-11.18-16.82-11.18-15.23,0-22.41,11.84-22.41,30.75,0,19.08,7.53,30.42,21.89,30.42,8.93,0,15.58-4.6,18.21-12.49l14.18,4.44c-4.37,13.81-16.28,21.54-32.74,21.54C1097.86,686.55,1083.5,670.43,1083.5,642.64Z"/><path class="cls-6" d="M1168.43,576.37a9.55,9.55,0,0,1,19.09,0c0,4.93-4.21,8.88-9.64,8.88A9.14,9.14,0,0,1,1168.43,576.37Zm1.93,24.17h15.23v84h-15.23Z"/></g></g></svg>